<?xml version="1.0" encoding="UTF-8"?>
<svg width="116px" height="155px" viewBox="0 0 116 155" version="1.1" xmlns="http://www.w3.org/2000/svg" xmlns:xlink="http://www.w3.org/1999/xlink">
    <!-- Generator: Sketch 52.6 (67491) - http://www.bohemiancoding.com/sketch -->
    <title>Logo</title>
    <desc>Created with Sketch.</desc>
    <defs>
        <path d="M0.630364263,3.950891 C0.285111529,1.76887415 1.78949053,-2.55795385e-13 4.00902153,-2.55795385e-13 L103.990974,-2.55795385e-13 C106.202208,-2.55795385e-13 107.715293,1.76629278 107.369631,3.950891 L85.3606171,143.049109 C85.0153644,145.231126 82.9456009,147 80.725912,147 L27.2740837,147 C25.0596595,147 22.9850398,145.233707 22.6393786,143.049109 L0.630364263,3.950891 Z" id="path-1"></path>
    </defs>
    <g id="Sandbox" stroke="none" stroke-width="1" fill="none" fill-rule="evenodd">
        <g id="Logo-White" transform="translate(-31.000000, -19.000000)">
            <g id="Logo" transform="translate(35.000000, 22.000000)">
                <path d="M107.87556,0.3 L107.87556,4.30558036 L85.0847104,148.3 L23.1762137,148.3 L-0.248622817,0.3 L107.87556,0.3 Z" id="Overlay" fill="#895BDC" transform="translate(54.102145, 74.300000) scale(-1, 1) rotate(-180.000000) translate(-54.102145, -74.300000) "></path>
                <g id="Group" transform="translate(54.000000, 74.500000) rotate(180.000000) translate(-54.000000, -74.500000) translate(0.000000, 1.000000)">
                    <mask id="mask-2" fill="white">
                        <use xlink:href="#path-1"></use>
                    </mask>
                    <path stroke="#895BDC" stroke-width="4" d="M-1.34506062,4.26345542 C-1.8828245,0.864757231 0.562855185,-2 4.00902153,-2 L103.990974,-2 C107.431566,-2 109.882803,0.864864043 109.345056,4.26345542 L87.336042,143.361673 C86.8366557,146.517823 83.9271519,149 80.725912,149 L27.2740837,149 C24.0758761,149 21.1634007,146.518207 20.6639537,143.361673 L-1.34506062,4.26345542 Z"></path>
                    <path d="M51.8398034,87.133919 C44.7098721,45.4104962 37.6053101,3.94275115 37.6053101,3.94275115 C37.2323012,1.76522982 35.1419466,2.55795385e-13 32.9291474,2.55795385e-13 L-0.992388923,2.55795385e-13 C-3.20195335,2.55795385e-13 -4.65314476,1.7532856 -4.23064732,3.9318949 L22.7520212,143.068105 C23.1731449,145.239631 25.3139118,147 27.5130853,147 L100.917964,147 L100.917964,134.88591 C100.917964,132.673859 99.1286928,130.715395 96.9423207,130.409671 C96.9423207,130.409671 58.9697346,128.857342 51.8398034,87.133919 Z" id="Mask" fill-opacity="0.33" fill="#BADFFF" mask="url(#mask-2)"></path>
                    <rect id="reflect" fill="#FFFFFF" opacity="0.860948822" mask="url(#mask-2)" x="60.2076923" y="-4.96621622" width="10.0615385" height="154.945946" rx="5.03076923"></rect>
                </g>
            </g>
        </g>
    </g>
</svg>